<svg width="24" height="24" viewBox="0 0 24 24" fill="none" xmlns="http://www.w3.org/2000/svg">
<path d="M8.1 13.34L10.93 10.51L4.74 4.32999C4.26 3.84999 3.43 3.97999 3.13 4.59999C2.42 6.08999 2.68 7.91999 3.91 9.15999L8.1 13.34ZM14.88 11.53C16.41 12.24 18.56 11.74 20.15 10.15C22.06 8.23999 22.43 5.49999 20.96 4.02999C19.5 2.56999 16.76 2.92999 14.84 4.83999C13.25 6.42999 12.75 8.57999 13.46 10.11L4.4 19.17C4.21302 19.357 4.10798 19.6106 4.10798 19.875C4.10798 20.1394 4.21302 20.393 4.4 20.58C4.58698 20.767 4.84058 20.872 5.105 20.872C5.36943 20.872 5.62302 20.767 5.81 20.58L12 14.41L18.18 20.59C18.2726 20.6826 18.3825 20.756 18.5035 20.8061C18.6244 20.8562 18.7541 20.882 18.885 20.882C19.0159 20.882 19.1456 20.8562 19.2665 20.8061C19.3875 20.756 19.4974 20.6826 19.59 20.59C19.6826 20.4974 19.756 20.3875 19.8061 20.2665C19.8562 20.1456 19.882 20.0159 19.882 19.885C19.882 19.7541 19.8562 19.6244 19.8061 19.5034C19.756 19.3825 19.6826 19.2726 19.59 19.18L13.41 13L14.88 11.53Z" fill="current"/>
</svg>
