<svg width="24" height="24" viewBox="0 0 24 24" fill="none" xmlns="http://www.w3.org/2000/svg">
<path d="M14.3914 5.4407C14.7606 5.4407 15.1004 5.512 15.4109 5.65466C16.3325 6.11852 16.8766 7.0001 16.8835 7.98314V14.7546C16.7107 15.8311 15.4785 15.5384 15.4487 14.7546V8.36074C15.3389 7.99612 14.6348 8.1473 14.618 8.36074V23.0364C14.439 24.535 12.5025 24.0951 12.4532 23.0113V14.0246C12.3293 13.445 11.5144 13.7083 11.4966 14.0498C11.5311 17.0368 11.5218 20.0241 11.5218 23.0113C11.3286 24.5021 9.40162 24.1207 9.3569 23.0364L9.33174 8.36074C9.21888 8.00398 8.56648 8.14082 8.55136 8.36074V14.7546C8.37848 15.8311 7.14636 15.5384 7.11652 14.7546V7.98314C7.13394 7.04202 7.47886 6.0992 8.29964 5.65466C8.56816 5.512 8.8954 5.44068 9.28138 5.44068L14.3914 5.4407ZM14.366 2.36554C14.366 3.672 13.3069 4.7311 12.0005 4.7311C10.694 4.7311 9.63494 3.672 9.63494 2.36554C9.63492 1.0591 10.694 0 12.0004 0C13.3069 0 14.366 1.0591 14.366 2.36554Z" fill="black"/>
</svg>
