<svg width="20" height="22" viewBox="0 0 20 22" fill="none" xmlns="http://www.w3.org/2000/svg">
<path d="M19.4444 2.75C19.7514 2.75 20 2.44234 20 2.0625V0.6875C20 0.307656 19.7514 0 19.4444 0H0.555556C0.248611 0 0 0.307656 0 0.6875V2.0625C0 2.44234 0.248611 2.75 0.555556 2.75H1.11042V19.25H0.555556C0.248611 19.25 0 19.5577 0 19.9375V21.3125C0 21.6923 0.248611 22 0.555556 22H8.88889V18.5625C8.88889 18.1844 9.13889 17.875 9.44444 17.875H10.5556C10.8611 17.875 11.1111 18.1844 11.1111 18.5625V22H19.4444C19.7514 22 20 21.6923 20 21.3125V19.9375C20 19.5577 19.7514 19.25 19.4444 19.25H18.8889V2.75H19.4444ZM8.88889 4.675C8.88889 4.4 9.11111 4.125 9.33333 4.125H10.6667C10.8889 4.125 11.1111 4.4 11.1111 4.675V6.325C11.1111 6.6 10.8889 6.875 10.6667 6.875H9.33333C9.11111 6.875 8.88889 6.6 8.88889 6.325V4.675ZM8.88889 8.8C8.88889 8.525 9.11111 8.25 9.33333 8.25H10.6667C10.8889 8.25 11.1111 8.525 11.1111 8.8V10.45C11.1111 10.725 10.8889 11 10.6667 11H9.33333C9.11111 11 8.88889 10.725 8.88889 10.45V8.8ZM4.44444 4.675C4.44444 4.4 4.66667 4.125 4.88889 4.125H6.22222C6.44444 4.125 6.66667 4.4 6.66667 4.675V6.325C6.66667 6.6 6.44444 6.875 6.22222 6.875H4.88889C4.66667 6.875 4.44444 6.6 4.44444 6.325V4.675ZM6.22222 11H4.88889C4.66667 11 4.44444 10.725 4.44444 10.45V8.8C4.44444 8.525 4.66667 8.25 4.88889 8.25H6.22222C6.44444 8.25 6.66667 8.525 6.66667 8.8V10.45C6.66667 10.725 6.44444 11 6.22222 11ZM6.66667 16.5C6.66667 14.2218 8.15903 12.375 10 12.375C11.841 12.375 13.3333 14.2218 13.3333 16.5H6.66667ZM15.5556 10.45C15.5556 10.725 15.3333 11 15.1111 11H13.7778C13.5556 11 13.3333 10.725 13.3333 10.45V8.8C13.3333 8.525 13.5556 8.25 13.7778 8.25H15.1111C15.3333 8.25 15.5556 8.525 15.5556 8.8V10.45ZM15.5556 6.325C15.5556 6.6 15.3333 6.875 15.1111 6.875H13.7778C13.5556 6.875 13.3333 6.6 13.3333 6.325V4.675C13.3333 4.4 13.5556 4.125 13.7778 4.125H15.1111C15.3333 4.125 15.5556 4.4 15.5556 4.675V6.325Z" fill="current"/>
</svg>
