<svg width="20" height="25" viewBox="0 0 20 25" fill="none" xmlns="http://www.w3.org/2000/svg" fill="red">
<g clip-path="url(#clip0_19_39)">
<path d="M8.23806 13.9771C8.72589 14.2817 9.23202 14.5535 9.75333 14.7909C11.2275 15.505 12.4393 16.0929 12.6997 18.4998C12.7349 18.9262 12.7349 19.355 12.6997 19.7815C12.6997 19.8466 12.6997 19.9158 12.686 20.0785L12.5294 23.4965C13.9467 23.4965 15.3152 23.5433 16.5211 23.6186C16.7933 23.5535 17.177 23.4151 17.5822 23.3093L14.4146 11.0392L13.9467 11.2305L13.7725 11.2956C12.7565 11.6699 12.0204 11.9405 10.7322 11.6109C10.7231 11.6129 10.7138 11.6129 10.7048 11.6109C9.80423 11.2488 9.33438 10.7442 8.88214 10.2498L8.80971 10.1725L8.22239 13.9832L8.23806 13.9771ZM1.88136 6.00383L3.51801 6.1259C3.93304 6.15642 4.20125 6.66301 4.12686 7.12891L3.24393 12.6729C3.17345 13.1185 1.10415 13.4867 0.620594 13.6129C0.217305 13.7227 -0.0646059 13.0758 0.0137027 12.6139L1.00235 6.6976C1.03613 6.48729 1.14595 6.29834 1.30934 6.16938C1.47273 6.04043 1.67735 5.9812 1.88136 6.00383ZM9.90799 23.5352C9.93344 22.1985 9.97651 21.3114 10.0489 19.8731V19.6554C10.0659 19.4232 10.0705 19.1902 10.0626 18.9575C10.0543 18.7554 10.0099 18.5567 9.93148 18.3716L9.92561 18.3106C9.83359 18.1071 9.74941 17.9037 9.62412 17.8487C9.26335 17.6844 8.89408 17.5411 8.51801 17.4194C7.99726 17.2424 7.41777 17.0614 6.90485 16.9108C6.52897 18.2109 6.01801 19.7754 5.4816 21.2647C5.06265 22.404 4.50274 23.1262 4.0603 23.9095C5.71065 23.7061 7.7917 23.5799 9.93344 23.527L9.90799 23.5352ZM0.978855 24.6053C1.4585 23.3846 2.33555 21.8831 2.87588 20.2738C3.43187 18.6198 3.96437 16.9332 4.35591 15.5782C4.11026 15.277 3.90541 14.9423 3.74706 14.5833C3.56537 14.1734 3.50802 13.7157 3.58261 13.2711L4.30697 9.2448C4.59279 7.08008 4.64761 5.91228 6.852 6.06486C8.93304 6.20524 9.90799 7.34457 10.6637 8.22754C10.9984 8.61817 11.2882 8.9559 11.5995 9.11052C11.7463 9.18376 11.9792 9.08204 12.2416 8.96607C12.4063 8.88723 12.5757 8.81927 12.7486 8.76262L12.9757 8.6731L13.1069 8.62224L13.7216 8.36792L13.4691 7.38526C13.4332 7.21126 13.4631 7.0296 13.5525 6.87784C13.6419 6.72608 13.784 6.61581 13.9494 6.56983C14.1148 6.52385 14.2908 6.54568 14.4412 6.6308C14.5916 6.71592 14.7047 6.85783 14.7572 7.02719L14.9706 7.85319L15 7.84099C15.1355 7.80071 15.2777 7.79094 15.4172 7.81234C15.5566 7.83375 15.69 7.88582 15.8085 7.96509C15.9995 8.08513 16.1605 8.25034 16.2784 8.44727C16.4075 8.66195 16.4754 8.91027 16.4742 9.16342C16.4604 9.40044 16.4014 9.63225 16.3006 9.84533C16.1998 10.0584 16.0591 10.2485 15.8868 10.4045C15.8696 10.4218 15.8489 10.435 15.8262 10.4431L15.6421 10.5184L18.9311 23.1934C19.1025 23.2242 19.2605 23.3095 19.3833 23.4375C19.6018 23.6881 19.7785 23.9748 19.906 24.2859L20 25.002H0.618636C0.618636 24.8596 0.749803 24.7274 0.980813 24.6073L0.978855 24.6053ZM7.02427 0.140384C7.57036 -0.0529691 8.16406 -0.0436086 8.70425 0.166872C9.24444 0.377352 9.69771 0.775934 9.98687 1.29473C10.276 1.81353 10.3832 2.42046 10.2901 3.01214C10.197 3.60382 9.90938 4.14366 9.47627 4.53972C9.04316 4.93578 8.49133 5.16356 7.91476 5.18427C7.3382 5.20497 6.77255 5.01732 6.31417 4.65327C5.8558 4.28922 5.53303 3.77129 5.40085 3.1877C5.26868 2.60411 5.33526 1.99094 5.58927 1.45264C5.73333 1.14634 5.93429 0.872693 6.18058 0.647473C6.42686 0.422254 6.7136 0.249913 7.02427 0.140384Z" fill="current"/>
</g>
<defs>
<clipPath id="clip0_19_39">
<rect width="20" height="25" fill="white"/>
</clipPath>
</defs>
</svg>
