<svg width="24" height="24" viewBox="0 0 24 24" fill="none" xmlns="http://www.w3.org/2000/svg">
<path d="M16.9454 14.543C15.6282 13.3969 13.9079 12.7031 12.0235 12.7031C10.1391 12.7031 8.4188 13.3969 7.09926 14.5453C7.06283 14.5782 7.04052 14.6238 7.03702 14.6728C7.03353 14.7217 7.04911 14.7701 7.08051 14.8078L7.92426 15.8133C7.99223 15.893 8.11176 15.9023 8.19145 15.8344C9.21333 14.9344 10.554 14.3906 12.0235 14.3906C13.493 14.3906 14.8336 14.9344 15.8555 15.832C15.9352 15.9 16.0547 15.8906 16.1227 15.8109L16.9665 14.8055C17.0321 14.7281 17.0227 14.6109 16.9454 14.543ZM19.6969 11.2594C17.618 9.52734 14.9438 8.48438 12.0235 8.48438C9.10317 8.48438 6.42895 9.52734 4.3477 11.2594C4.30963 11.2915 4.2858 11.3374 4.28141 11.387C4.27702 11.4366 4.29242 11.4859 4.32426 11.5242L5.16801 12.5297C5.23364 12.6094 5.35317 12.6187 5.43051 12.5531C7.2188 11.0672 9.51801 10.1719 12.0235 10.1719C14.529 10.1719 16.8282 11.0672 18.6141 12.5531C18.6938 12.6187 18.811 12.6094 18.8766 12.5297L19.7204 11.5242C19.786 11.4445 19.7766 11.325 19.6969 11.2594ZM22.4321 8.00156C19.5868 5.66719 15.9446 4.26562 11.9766 4.26562C8.03442 4.26562 4.41567 5.64844 1.57739 7.95469C1.55789 7.97035 1.54172 7.98976 1.52984 8.01177C1.51795 8.03378 1.51059 8.05795 1.50819 8.08285C1.50579 8.10775 1.50839 8.13287 1.51585 8.15675C1.52331 8.18063 1.53546 8.20277 1.55161 8.22187L2.39536 9.22734C2.46098 9.30469 2.57817 9.31641 2.65551 9.25312C5.20317 7.18828 8.44458 5.95312 11.9766 5.95312C15.5344 5.95312 18.7969 7.20703 21.3516 9.29766C21.4313 9.36328 21.5485 9.35156 21.6141 9.27188L22.4579 8.26641C22.5258 8.18672 22.5141 8.06719 22.4321 8.00156ZM10.5 18.2344C10.5 18.6322 10.6581 19.0137 10.9394 19.295C11.2207 19.5763 11.6022 19.7344 12 19.7344C12.3979 19.7344 12.7794 19.5763 13.0607 19.295C13.342 19.0137 13.5 18.6322 13.5 18.2344C13.5 17.8366 13.342 17.455 13.0607 17.1737C12.7794 16.8924 12.3979 16.7344 12 16.7344C11.6022 16.7344 11.2207 16.8924 10.9394 17.1737C10.6581 17.455 10.5 17.8366 10.5 18.2344Z" fill="black"/>
</svg>
